<?xml version="1.0" encoding="utf-8"?>
<!-- Generator: Adobe Illustrator 27.2.0, SVG Export Plug-In . SVG Version: 6.00 Build 0)  -->
<svg version="1.1" id="Ebene_1" xmlns="http://www.w3.org/2000/svg" xmlns:xlink="http://www.w3.org/1999/xlink" x="0px" y="0px"
	 viewBox="0 0 1267.9 557.8" style="enable-background:new 0 0 1267.9 557.8;" xml:space="preserve">
<style type="text/css">
	.st0{fill:#FF0000;}
	.st1{fill:#FFFFFF;}
	.st2{fill:#878787;}
	.st3{fill:#494949;}
</style>
<g>
	<g>
		<path class="st0" d="M393.7,556.1c15.3,0,27.7-12.4,27.7-27.7V28.8c0-15.3-12.4-27.7-27.7-27.7h-366C12.4,1.1,0,13.5,0,28.8v499.4
			c0,15.3,12.4,27.7,27.7,27.7h366V556.1z"/>
		<g>
			<polygon class="st1" points="402,183.9 244.9,183.9 244.9,26.8 176.5,26.8 176.5,183.9 19.4,183.9 19.4,252.3 176.5,252.3 
				176.5,409.4 244.9,409.4 244.9,252.3 402,252.3 			"/>
			<path class="st1" d="M120.4,144.2c11.3,9,20.7,20.8,29,31.4h18.9v-22.8c-5-6.5-10.3-13.1-15.9-19.1c-12.1-13.4-28-21.8-42.9-31.7
				c-10.4-7.8-20.2-19.7-27.6-29.8c-7.1,6.3-13.7,13-19.8,20.2c1.3,2.2,3.4,5.6,7,11c9.8,14.8,24.5,22.8,39.1,32
				C112.5,137.8,116.5,141.2,120.4,144.2"/>
			<path class="st1" d="M133.8,175.6c-4.2-7.5-11.4-16.2-17.1-22.3c-17.3-15.6-41.1-20.8-54-41.9c-3.6-5.9-5.7-9.3-6.9-11.1
				c-5.9,7.8-11.3,16-16,24.6c8.9,14.9,20.3,28.2,36.3,36.3c12.1,6.2,18.6,11.8,21.1,14.3h36.6V175.6z"/>
			<path class="st1" d="M337.2,70.4c-6.1,4.4-11.9,8.2-17.3,13.4c-12.9,10.6-20.3,25.6-30,39.1c-9.2,13-23.5,23.8-37.1,32v20.7H277
				c11.1-7.5,23.2-18.3,31.6-28c13.6-18.8,23.8-41.9,43.9-54c2-1.3,3.7-2.3,5.2-3.2C351.3,83.3,344.5,76.6,337.2,70.4"/>
			<path class="st1" d="M383.1,308c-8.7-11.4-17.3-22.1-29.7-29.7c-8.8-5.1-18.3-11.7-27-17.8h-37.3l3.3,5.4
				c12.1,16.6,30,26,46.1,37.4c11.5,7.6,21.6,18.9,28.8,30.3c5.9-8,11.2-16.5,15.9-25.3L383.1,308z"/>
			<path class="st1" d="M356.8,336.9c-12.2-19.5-34.5-30.7-52-43.4c-12.6-9.1-21.6-20.8-29.8-32.9h-22.2v19.6
				c9.7,14.2,24.2,31,38.1,39.3c18.2,11.1,36.1,25.9,50.5,42.9c6.8-6.2,13.1-12.8,19-19.9C359.4,340.9,358.3,339,356.8,336.9"/>
			<path class="st1" d="M144.5,260.5c-15.8,11.1-29.7,24.9-40.4,40.8c-10.4,18.1-22,33-39.1,45.1l-0.2,0.3c6.2,7,12.9,13.6,20,19.6
				c1.5-1,3.4-2.3,5.5-3.9c16.2-12.3,29-27,38.7-43.4c9.8-15.3,24.6-28.7,39.4-39.4v-19.2h-23.9V260.5z"/>
			<path class="st1" d="M84.3,260.5c-9.7,9.4-15.5,18.5-22.1,29.4c-4.9,8.4-13.1,16.8-21.8,22.5c4.8,8.6,10.2,16.8,16.2,24.5
				l10.3-7.1c4.2-3,8.6-6.7,11.6-10.7c7.9-8.4,13.6-19.6,20.6-28.8c7.7-10.6,16.9-19.1,26.5-27c0.6-0.5,2.2-1.9,3.4-2.9H84.3V260.5z
				"/>
			<path class="st1" d="M168.3,293.9c-13.8,9.8-27.1,22.9-35.2,37.2c-8.2,15.1-20.6,28.3-35.7,38.2c-2.2,1.4-3.8,2.5-5.1,3.3
				c8,6.1,16.5,11.7,25.4,16.5c1.9-1.4,4.6-3.4,8.2-6c19-13.5,29.1-33.9,42.4-52.3L168.3,293.9L168.3,293.9z"/>
			<path class="st1" d="M293.9,335.9c-15.1-8.1-30.7-23.9-41.1-37.8V339c1.2,1.4,3.1,3.6,6.1,7.3c12.6,14.9,32.2,20.3,44.9,34.7
				c2.1,2.3,3.6,4.1,4.8,5.4c8.2-4.8,16-10.1,23.4-16C322.4,355.5,308.9,343.9,293.9,335.9"/>
			<path class="st1" d="M304.5,47.6c-3.7,2.3-10.2,6-20.7,15.8c-11.4,10.7-19.6,30-30.9,42.1v34.6C267.3,130,282,116,291,101.4
				c8.7-13.6,19.6-26.5,33.5-34.2c2.2-1.3,3.9-2.3,5.2-3.1C321.6,58,313.2,52.5,304.5,47.6"/>
			<path class="st1" d="M168.3,95.5c-1.8-2.2-4.7-5.6-6.9-7.8c-13.7-13.1-34.7-22.8-48-38.1c-8.3,4.8-16.2,10.2-23.6,16.1
				c9.9,13.4,24.3,28.4,38.9,35.9c15.1,8.7,28.2,21.7,39.6,33.9L168.3,95.5L168.3,95.5z"/>
			<path class="st1" d="M89.1,490.4c-2.9-10.7-10.3-17.1-21.4-17.1c-17.1,0-24.1,15.6-24.1,30.5c0,15.1,6.9,30.3,24.1,30.3
				c12.4,0,20.1-7.4,22.1-19.3h8.9c-2.9,16-12.9,26.8-30.9,26.8c-22.9,0-33-16.5-33-37.7c0-20,11.5-38,33-38
				c16.5,0,27.3,7.9,29.8,24.5H89.1z"/>
			<path class="st1" d="M140.1,497.8c3-0.3,8.2-1.1,11-2.4c2.8-1.2,3.1-5,3.1-7.5c0-8.5-5-14.6-17.9-14.6
				c-11.5,0-19.4,3.8-20.9,16.3h-8.5c1.3-16.9,13.9-23.7,29.6-23.7c14.6,0,26.1,5.7,26.1,22.3v39.1c0,6.5,1.7,8.1,8.7,5.6v6.5
				c-1.2,0.4-4.2,1.4-6.5,1.4c-1.4,0-2.5-0.1-3.7-0.4c-5.6-0.8-6.5-5.7-6.7-10.7c-6.9,7.8-16.4,11.9-26.8,11.9
				c-12.6,0-24-6.8-24-20.6c0-12.1,8.3-19.4,25.1-21.7L140.1,497.8z M154.1,501.9c-7.1,2.9-14.3,3.5-21.5,4
				c-12.6,1-20.3,5.6-20.3,15.3c0,8.7,7.6,12.9,15.6,12.9c13.2,0,26.2-6.4,26.2-20.9V501.9z"/>
			<path class="st1" d="M184.6,539.7h-8.3v-71.9h8.3v13.5h0.3c4.6-11.5,11.4-15.4,23.5-15.4v9c-18.7-0.4-23.7,13.4-23.7,29.5v35.3
				H184.6z"/>
			<path class="st1" d="M223.3,539.7H215v-71.8h8.3V539.7z M223.7,452h-9.2v-12.3h9.2V452z"/>
			<path class="st1" d="M261.4,539.8c-1.9,0.4-5.5,1.7-9.6,1.7c-8.2,0-12.8-3.6-12.8-14.3v-52.6h-10.1v-6.9H239v-20h8.3v20h13.4v6.9
				h-13.4V524c0,7.1,0.3,10.1,7.2,10.1c2.2,0,4.6-0.4,6.8-1L261.4,539.8L261.4,539.8z"/>
			<path class="st1" d="M299.4,497.8c3-0.3,8.2-1.1,11-2.4c2.8-1.2,3.1-5,3.1-7.5c0-8.5-5-14.6-17.9-14.6
				c-11.5,0-19.4,3.8-20.9,16.3h-8.5c1.3-16.9,13.9-23.7,29.6-23.7c14.6,0,26.1,5.7,26.1,22.3v39.1c0,6.5,1.7,8.1,8.7,5.6v6.5
				c-1.2,0.4-4.2,1.4-6.5,1.4c-1.4,0-2.5-0.1-3.7-0.4c-5.6-0.8-6.5-5.7-6.7-10.7c-6.9,7.8-16.4,11.9-26.8,11.9
				c-12.6,0-24-6.8-24-20.6c0-12.1,8.3-19.4,25.1-21.7L299.4,497.8z M313.4,501.9c-7.1,2.9-14.3,3.5-21.5,4
				c-12.6,1-20.3,5.6-20.3,15.3c0,8.7,7.6,12.9,15.5,12.9c13.2,0,26.2-6.4,26.2-20.9L313.4,501.9L313.4,501.9z"/>
			<path class="st1" d="M338.7,517.2c2.6,12.3,9,16.9,21.5,16.9c12.1,0,17.8-6.4,17.8-13.3c0-20.8-46.1-6.1-46.1-34.4
				c0-11.9,9.3-20.5,25.2-20.5c15.5,0,25.7,6.4,27.8,22.6h-8.4c-1.5-11.1-9-15.1-19.4-15.1c-10.5,0-16.3,5-16.3,12.3
				c0,19.6,46.1,7.4,46.1,35c0,13.7-12.3,21-29.3,21c-16.9,0-26.6-10.8-27.3-24.4L338.7,517.2L338.7,517.2z"/>
			<path class="st1" d="M364.8,99.4c-1.5,0.8-3.2,1.8-5.4,3.2c-17.3,10.9-27.7,29.7-38.9,45.6c-6.4,9.7-16.4,19.3-25.6,27.5H335
				c9.5-8.5,18.1-20.7,23.2-28.7c5.4-8.7,14.7-16.7,22.1-24.1C375.7,114.6,370.5,106.7,364.8,99.4"/>
		</g>
	</g>
	<g>
		<g>
			<path class="st2" d="M558.9,320.9c25.6,0,46.3,20.7,46.3,46.3c0,0.5,0,1,0,1.5v-2.3h-10.9v25c0,3.4-0.6,6-1.9,7.8l-0.1,0.1
				c-0.4,0.4-0.8,0.8-1.2,1.2c-1.1,0.8-2.5,1.2-4.2,1.2c-2.4,0-4.1-0.8-5.2-2.4c-1.1-1.6-1.6-4.3-1.6-7.9v-25h-11.4v25
				c0,6.3,1.5,11,4.6,14.2c1.5,1.5,3.4,2.7,5.6,3.5c-6,2.9-12.7,4.5-19.8,4.5c-25.6,0-46.3-20.7-46.3-46.3
				C512.7,341.6,533.4,320.9,558.9,320.9"/>
			<path class="st2" d="M616.5,373.9V385h4c2.5,0,4.4-0.4,5.6-1.3c1.2-0.9,1.9-2.3,1.9-4.1c0-1.9-0.7-3.4-2.1-4.3
				c-1.4-0.9-3.6-1.4-6.6-1.4L616.5,373.9L616.5,373.9z M605.2,366.4h17.1c5.7,0,9.9,0.9,12.7,2.8s4.1,4.7,4.1,8.5
				c0,2.8-0.7,5.1-2.2,6.9s-3.6,3-6.3,3.6c2.3,0.8,4.1,3.2,5.5,7.1l0,0l5.2,14.3h-12l-3.8-11.8c-0.6-1.9-1.4-3.2-2.5-3.9
				c-1.1-0.7-2.7-1.1-4.9-1.1h-1.7v16.8h-11.3v-43.2L605.2,366.4L605.2,366.4z"/>
		</g>
		<g>
			<g>
				<path class="st3" d="M542.3,150.3c5.6,0,10.4,0.7,14.4,2s7.1,2.7,9.3,4.2c2.3,1.5,3.6,2.4,3.9,2.8l-4.8,7.2
					c-0.8-0.7-2.1-1.6-4-2.9c-1.9-1.3-4.4-2.4-7.4-3.5c-3-1-6.6-1.6-10.8-1.6c-6.6,0-11.8,1.4-15.6,4.2s-5.7,6.6-5.7,11.5
					c0,3.3,1,6.2,3,8.7s4.7,4.7,8.2,6.7s7.4,4,11.7,6c3.4,1.5,6.9,3.3,10.3,5.2c3.5,1.9,6.6,4.1,9.5,6.7c2.9,2.6,5.2,5.5,7,8.9
					s2.7,7.3,2.7,11.8c0,4.1-0.8,7.7-2.5,11.1c-1.6,3.3-4,6.2-7,8.7c-3,2.4-6.5,4.3-10.7,5.6c-4.1,1.3-8.6,2-13.5,2
					c-5.8,0-11.2-0.8-15.9-2.3c-4.8-1.5-8.6-3.1-11.5-4.7c-2.9-1.6-4.5-2.6-4.8-2.9l5.2-7.6c0.6,0.5,1.7,1.3,3.3,2.3s3.5,2,5.9,3.1
					s5.1,2,8.2,2.7c3.1,0.7,6.5,1.1,10.1,1.1c7.9,0,13.9-1.8,18-5.5s6.1-8.3,6.1-13.9c0-4.4-1.3-8.1-3.9-11.2
					c-2.6-3.1-6-5.8-10.1-8.2s-8.4-4.6-12.8-6.7c-4.7-2.2-9-4.6-12.8-7.1s-6.9-5.4-9.2-8.8c-2.3-3.3-3.5-7.3-3.5-12
					c0-4.6,1.3-8.6,4-12.2c2.6-3.5,6.2-6.3,10.7-8.3C531.6,151.3,536.7,150.3,542.3,150.3z"/>
				<path class="st3" d="M586.1,190.5h13.2v-25.9h8.7v25.9h17.2v7.9H608v37.5c0,4.2,0.8,7.2,2.3,9s3.5,2.7,5.8,2.7
					c2.2,0,3.9-0.4,5-1.2s1.8-1.3,2-1.5l4.1,6.7c-0.3,0.3-1,0.7-2.1,1.3s-2.5,1.2-4.2,1.8c-1.7,0.5-3.8,0.8-6.3,0.8
					c-4.3,0-7.9-1.4-10.8-4.1c-3-2.7-4.4-7.1-4.4-13.2v-39.8h-13.2L586.1,190.5L586.1,190.5z"/>
				<path class="st3" d="M646.2,255.5c-2.4,0-4.4-0.8-6.1-2.5s-2.5-3.7-2.5-6.1c0-2.5,0.8-4.5,2.5-6.2s3.7-2.5,6.1-2.5
					c2.4,0,4.5,0.8,6.2,2.5s2.5,3.8,2.5,6.2s-0.8,4.4-2.5,6.1C650.6,254.8,648.6,255.5,646.2,255.5z"/>
				<path class="st3" d="M742.2,223c0,6.7-0.9,12.4-2.8,17.3c-1.9,4.9-4.8,8.6-8.7,11.3c-3.9,2.6-8.9,4-15,4c-4.9,0-9-0.7-12.3-2.1
					c-3.3-1.4-5.8-2.9-7.5-4.6c-1.8-1.7-2.9-3-3.3-3.8l4.4-7.3c0.6,1,1.5,2.2,2.8,3.7s3.2,2.8,5.7,4s5.7,1.8,9.6,1.8
					c4.7,0,8.4-1.1,11.1-3.3c2.7-2.2,4.6-5.2,5.8-8.8c1.1-3.7,1.7-7.8,1.7-12.2v-70.9h8.6L742.2,223L742.2,223z"/>
				<path class="st3" d="M788.5,255.5c-6.3,0-11.9-1.5-16.8-4.4c-4.9-2.9-8.7-6.9-11.5-12c-2.8-5-4.2-10.6-4.2-16.8s1.4-11.9,4.2-17
					s6.6-9.2,11.5-12.2s10.5-4.5,16.8-4.5s11.9,1.5,16.7,4.5s8.7,7.1,11.4,12.2c2.8,5.1,4.2,10.8,4.2,17s-1.4,11.8-4.2,16.8
					s-6.6,9-11.4,12C800.4,254.1,794.9,255.5,788.5,255.5z M788.5,247.6c4.8,0,8.9-1.1,12.5-3.3s6.3-5.2,8.3-9.1c2-3.8,3-8.2,3-12.9
					c0-4.8-1-9.2-3-13c-2-3.9-4.7-6.9-8.3-9.2s-7.7-3.4-12.5-3.4s-9,1.1-12.6,3.4c-3.6,2.3-6.4,5.4-8.4,9.2c-2,3.9-3,8.2-3,13
					s1,9.1,3,12.9c2,3.8,4.8,6.9,8.4,9.1C779.5,246.5,783.7,247.6,788.5,247.6z"/>
				<path class="st3" d="M858.2,188.8c2.9,0,5.7,0.3,8.3,1c2.6,0.6,4.9,1.4,6.8,2.4c1.9,0.9,3.4,1.8,4.4,2.6l-4.2,6.1
					c-1.1-1-2.9-2.1-5.6-3.3c-2.7-1.2-5.7-1.7-9-1.7c-4.1,0-7.6,0.8-10.5,2.5s-4.3,4.2-4.3,7.4c0,3.1,1.5,5.6,4.4,7.5
					c2.9,1.8,6.8,3.4,11.5,4.5c3.6,0.9,7,2.1,10,3.5s5.4,3.3,7.2,5.7s2.7,5.6,2.7,9.5c0,3.4-0.7,6.3-2.1,8.7c-1.4,2.4-3.3,4.4-5.7,6
					c-2.4,1.5-5.1,2.7-8.1,3.5s-6.2,1.2-9.5,1.2c-3.4,0-6.6-0.4-9.5-1.2s-5.4-1.7-7.5-2.8s-3.7-2.1-4.7-3l4.4-6.8
					c1.3,1.4,3.5,2.8,6.6,4.3s6.6,2.2,10.7,2.2c4.8,0,8.7-1.1,11.8-3.3s4.7-5.1,4.7-8.7c0-2.6-0.7-4.7-2.2-6.3s-3.4-2.9-5.8-3.8
					c-2.4-0.9-5-1.8-7.7-2.4c-2.6-0.7-5.1-1.5-7.5-2.4s-4.5-2.1-6.3-3.6c-1.8-1.4-3.3-3.2-4.3-5.2c-1.1-2-1.6-4.4-1.6-7.1
					c0-3.4,1.1-6.3,3.2-8.8c2.1-2.5,4.9-4.4,8.4-5.8C850.3,189.4,854.1,188.8,858.2,188.8z"/>
				<path class="st3" d="M900.6,223.1c0.1,4.4,0.9,8.5,2.7,12.4c1.7,3.8,4.3,7,7.8,9.3c3.5,2.4,7.9,3.5,13.2,3.5
					c4.3,0,7.9-0.7,10.8-2.1c2.9-1.4,5.2-3.1,6.9-4.9c1.7-1.9,2.9-3.6,3.7-5l5.5,5.4c-1.9,2.9-4.1,5.4-6.6,7.5s-5.4,3.7-8.8,4.7
					c-3.4,1.1-7.3,1.6-12,1.6c-6.7,0-12.4-1.5-17.2-4.5c-4.7-3-8.4-7.1-10.8-12.3c-2.5-5.2-3.7-11-3.7-17.5c0-6.2,1.2-11.7,3.7-16.6
					s6-8.8,10.7-11.7c4.6-2.9,10.2-4.3,16.8-4.3c5.9,0,11.1,1.3,15.5,3.9c4.4,2.6,7.8,6.2,10.2,10.9c2.4,4.6,3.7,10,3.7,16.2
					c0,0.5,0,1.1,0,1.8s-0.1,1.3-0.1,1.7L900.6,223.1L900.6,223.1z M943.8,215.8c-0.1-2.8-0.7-5.7-2-8.8s-3.4-5.7-6.4-7.9
					s-7-3.3-12.1-3.3c-5.3,0-9.6,1.1-12.7,3.2c-3.2,2.1-5.4,4.7-6.9,7.8c-1.4,3.1-2.3,6.1-2.6,9H943.8z"/>
				<path class="st3" d="M961.5,190.5h14.1v-18.4c0-6.6,1-11.7,3.1-15.5s4.6-6.5,7.8-8.1c3.1-1.6,6.3-2.5,9.6-2.5
					c3.9,0,6.9,0.6,9.1,1.7c2.2,1.1,3.4,1.8,3.8,2.1l-3.8,7c-0.3-0.3-1.2-0.9-2.7-1.7s-3.5-1.2-6.1-1.2c-1.9,0-3.8,0.5-5.7,1.4
					c-1.8,0.9-3.4,2.8-4.6,5.6c-1.2,2.8-1.8,6.9-1.8,12.5v17.2h19.1v7.8h-19.1v55.3h-8.6v-55.3h-14.1L961.5,190.5L961.5,190.5z"/>
			</g>
			<path class="st3" d="M531.1,57l42.7,50.6h-10.4l-40.7-48v48H514V6.3h8.7v48.6L561,6.3h10.1L531.1,57z"/>
			<path class="st3" d="M594.6,107.6H586v-63h8.6V56h-0.4c0.2-1.3,1.1-3,2.8-5.1s3.9-3.9,6.8-5.6c2.9-1.7,6.2-2.5,10.1-2.5
				c3,0,5.5,0.4,7.6,1.1c2.1,0.7,3.6,1.5,4.4,2.3l-3.8,7.4c-0.7-0.7-1.9-1.3-3.7-2s-4-1-6.6-1c-3.5,0-6.6,1.2-9.2,3.5
				c-2.6,2.4-4.6,5.2-6,8.4s-2.1,6.2-2.1,8.9v36.2H594.6z"/>
			<path class="st3" d="M685.8,107.6V94.4c-0.4,1.4-1.5,3.3-3.6,5.7c-2,2.4-4.8,4.6-8.4,6.5c-3.6,1.9-7.8,2.9-12.6,2.9
				c-5.7,0-10.9-1.3-15.7-4c-4.8-2.6-8.6-6.4-11.5-11.4s-4.3-11-4.3-17.9c0-7,1.4-12.9,4.3-17.9s6.7-8.8,11.5-11.5s10-4,15.7-4
				c4.9,0,9.1,0.9,12.6,2.7s6.3,3.9,8.4,6.3c2.1,2.4,3.2,4.3,3.5,5.9v-13h8.6v63L685.8,107.6L685.8,107.6z M638.4,76.2
				c0,5.3,1.1,9.9,3.5,13.7c2.3,3.8,5.3,6.8,8.9,8.8c3.7,2,7.5,3.1,11.5,3.1c4.5,0,8.4-1,11.9-3.1s6.2-5.1,8.2-8.9s3-8.4,3-13.6
				s-1-9.7-3-13.6c-2-3.8-4.8-6.8-8.2-8.9c-3.5-2.1-7.4-3.2-11.9-3.2c-4,0-7.9,1-11.5,3.1c-3.7,2.1-6.6,5-8.9,8.9
				C639.5,66.3,638.4,70.8,638.4,76.2z"/>
			<path class="st3" d="M745.1,42.8c4,0,7.9,0.9,11.7,2.6c3.8,1.7,6.9,4.4,9.4,8.1s3.7,8.5,3.7,14.4v39.7H761V69.9
				c0-7-1.6-12.1-4.9-15.2c-3.3-3.1-7.5-4.6-12.6-4.6c-3.4,0-6.6,1-9.8,2.9c-3.1,1.9-5.7,4.6-7.7,8c-2,3.4-3,7.2-3,11.4v35.2h-8.7
				v-63h8.7v12.1c0.4-1.8,1.6-3.8,3.6-5.9c2.1-2.2,4.7-4.1,8-5.6C737.8,43.6,741.3,42.8,745.1,42.8z"/>
			<path class="st3" d="M825.6,44.6H837l-33.8,30l35.5,33h-11.4l-31.5-29.1v29.1h-8.7V2h8.7v69L825.6,44.6z"/>
			<path class="st3" d="M850.3,77.2c0.1,4.4,0.9,8.5,2.6,12.4c1.7,3.8,4.3,6.9,7.8,9.3s7.9,3.5,13.1,3.5c4.3,0,7.9-0.7,10.8-2.1
				c2.9-1.4,5.2-3,6.9-4.9s2.9-3.5,3.6-5l5.4,5.4c-1.9,2.9-4.1,5.4-6.6,7.5s-5.4,3.6-8.7,4.7c-3.4,1.1-7.3,1.6-11.9,1.6
				c-6.7,0-12.4-1.5-17.1-4.5c-4.7-3-8.3-7.1-10.8-12.2c-2.5-5.2-3.7-11-3.7-17.4c0-6.1,1.2-11.7,3.7-16.6s6-8.8,10.6-11.7
				s10.2-4.3,16.8-4.3c5.9,0,11.1,1.3,15.5,3.9c4.4,2.6,7.8,6.2,10.2,10.9c2.4,4.6,3.6,10,3.6,16.2c0,0.5,0,1,0,1.8
				c0,0.7-0.1,1.3-0.1,1.7h-51.7L850.3,77.2L850.3,77.2z M893.4,69.9c-0.1-2.8-0.7-5.7-2-8.8c-1.3-3.1-3.4-5.7-6.4-7.9
				c-2.9-2.2-7-3.3-12.1-3.3c-5.3,0-9.6,1.1-12.7,3.2c-3.1,2.1-5.4,4.7-6.9,7.8c-1.4,3.1-2.3,6.1-2.6,9H893.4z"/>
			<path class="st3" d="M949.5,42.8c4,0,7.9,0.9,11.7,2.6c3.8,1.7,6.9,4.4,9.4,8.1s3.7,8.5,3.7,14.4v39.7h-8.9V69.9
				c0-7-1.6-12.1-4.9-15.2c-3.3-3.1-7.5-4.6-12.6-4.6c-3.4,0-6.6,1-9.8,2.9c-3.1,1.9-5.7,4.6-7.7,8c-2,3.4-3,7.2-3,11.4v35.2h-8.7
				v-63h8.7v12.1c0.4-1.8,1.6-3.8,3.6-5.9c2.1-2.2,4.7-4.1,8-5.6C942.2,43.6,945.7,42.8,949.5,42.8z"/>
			<path class="st3" d="M1025.5,42.8c3.9,0,7.8,0.9,11.6,2.6c3.8,1.7,6.9,4.4,9.4,8.1s3.7,8.5,3.7,14.4v39.7h-8.9V69.9
				c0-7-1.6-12.1-4.9-15.2c-3.2-3.1-7.4-4.6-12.5-4.6c-3.4,0-6.7,1-9.9,2.9c-3.1,1.9-5.7,4.6-7.8,8c-2,3.4-3.1,7.2-3.1,11.4v35.2
				h-8.9V2h8.9v54.7c0.4-1.8,1.6-3.8,3.6-5.9c2.1-2.2,4.7-4.1,8-5.6C1018.1,43.6,1021.6,42.8,1025.5,42.8z"/>
			<path class="st3" d="M1121.7,107.6V94.4c-0.4,1.4-1.5,3.3-3.6,5.7c-2,2.4-4.8,4.6-8.4,6.5s-7.8,2.9-12.6,2.9
				c-5.7,0-10.9-1.3-15.7-4c-4.8-2.6-8.6-6.4-11.5-11.4s-4.3-11-4.3-17.9c0-7,1.4-12.9,4.3-17.9s6.7-8.8,11.5-11.5s10-4,15.7-4
				c4.9,0,9.1,0.9,12.6,2.7s6.3,3.9,8.4,6.3c2.1,2.4,3.2,4.3,3.5,5.9v-13h8.6v63L1121.7,107.6L1121.7,107.6z M1074.2,76.2
				c0,5.3,1.2,9.9,3.5,13.7c2.3,3.8,5.3,6.8,8.9,8.8c3.7,2,7.5,3.1,11.5,3.1c4.5,0,8.4-1,11.9-3.1s6.2-5.1,8.2-8.9s3-8.4,3-13.6
				s-1-9.7-3-13.6c-2-3.8-4.8-6.8-8.2-8.9c-3.5-2.1-7.4-3.2-11.9-3.2c-4,0-7.9,1-11.5,3.1c-3.7,2.1-6.6,5-8.9,8.9
				C1075.4,66.3,1074.2,70.8,1074.2,76.2z"/>
			<path class="st3" d="M1157.6,77.5c0,7.4,1.6,13.2,4.9,17.5c3.2,4.3,8.1,6.5,14.7,6.5s11.5-2.2,14.7-6.5s4.8-10.2,4.8-17.5V44.6
				h8.7v34.5c0,5.9-1.1,11.1-3.3,15.7c-2.2,4.6-5.4,8.2-9.6,10.8c-4.2,2.6-9.3,3.9-15.4,3.9c-6,0-11.2-1.3-15.3-3.9
				c-4.2-2.6-7.4-6.2-9.6-10.8c-2.2-4.6-3.3-9.8-3.3-15.7V44.6h8.7L1157.6,77.5L1157.6,77.5z"/>
			<path class="st3" d="M1246.4,42.8c2.9,0,5.7,0.3,8.2,1c2.6,0.6,4.8,1.4,6.8,2.4c1.9,0.9,3.4,1.8,4.4,2.6l-4.2,6.1
				c-1.1-1-2.9-2.1-5.6-3.3s-5.7-1.7-9-1.7c-4.1,0-7.6,0.8-10.5,2.5s-4.3,4.1-4.3,7.4c0,3.1,1.5,5.6,4.4,7.4s6.8,3.4,11.5,4.5
				c3.6,0.9,6.9,2.1,9.9,3.5s5.4,3.3,7.2,5.6c1.8,2.4,2.7,5.5,2.7,9.5c0,3.4-0.7,6.3-2.1,8.7c-1.4,2.4-3.3,4.4-5.6,5.9
				c-2.4,1.5-5.1,2.7-8.1,3.5s-6.2,1.2-9.5,1.2c-3.4,0-6.6-0.4-9.5-1.2c-2.9-0.8-5.4-1.7-7.5-2.8c-2.1-1.1-3.6-2.1-4.7-3l4.4-6.8
				c1.3,1.4,3.5,2.8,6.6,4.3c3,1.5,6.6,2.2,10.7,2.2c4.8,0,8.7-1.1,11.8-3.3c3.1-2.2,4.6-5.1,4.6-8.7c0-2.6-0.7-4.7-2.2-6.3
				c-1.5-1.6-3.4-2.8-5.8-3.8c-2.4-0.9-5-1.8-7.7-2.4c-2.6-0.7-5.1-1.5-7.5-2.4s-4.5-2.1-6.3-3.6c-1.8-1.4-3.3-3.2-4.3-5.2
				s-1.6-4.4-1.6-7.1c0-3.4,1-6.3,3.1-8.8s4.9-4.4,8.4-5.8C1238.5,43.5,1242.3,42.8,1246.4,42.8z"/>
		</g>
		<g>
			<path class="st2" d="M546,505.1h3.7v27c0,3.6-0.7,6.6-2.1,9.2c-1.4,2.5-3.4,4.5-5.8,5.8c-2.4,1.4-5.1,2-8.2,2c-3,0-5.7-0.7-8.2-2
				c-2.4-1.4-4.4-3.3-5.8-5.8c-1.4-2.5-2.2-5.6-2.2-9.2v-27h3.7v26.8c0,2.8,0.6,5.2,1.7,7.2s2.6,3.6,4.5,4.8c1.9,1.1,4,1.7,6.3,1.7
				s4.4-0.6,6.3-1.7c1.9-1.1,3.4-2.7,4.5-4.8s1.7-4.5,1.7-7.2v-26.8H546z"/>
			<path class="st2" d="M571.5,520.7c1.7,0,3.4,0.4,5,1.1s2.9,1.9,4,3.5c1,1.6,1.6,3.6,1.6,6.1v17h-3.8v-16.1c0-3-0.7-5.1-2.1-6.5
				c-1.4-1.3-3.2-2-5.4-2c-1.4,0-2.8,0.4-4.2,1.2c-1.3,0.8-2.4,2-3.3,3.4c-0.9,1.4-1.3,3.1-1.3,4.8v15h-3.7v-26.9h3.7v5.2
				c0.2-0.8,0.7-1.6,1.6-2.5c0.9-0.9,2-1.7,3.4-2.4C568.4,520.9,569.9,520.7,571.5,520.7z"/>
			<path class="st2" d="M592.9,510.5c-0.8,0-1.5-0.3-2-0.8c-0.6-0.6-0.8-1.2-0.8-2s0.3-1.5,0.9-2c0.6-0.6,1.2-0.8,2-0.8
				c0.5,0,1,0.1,1.5,0.4c0.4,0.3,0.8,0.6,1.1,1s0.4,0.9,0.4,1.5c0,0.8-0.3,1.5-0.9,2C594.4,510.2,593.8,510.5,592.9,510.5z
				 M591,548.3v-26.9h3.7v26.9H591z"/>
			<path class="st2" d="M601.6,521.4h4l9.9,23.4l9.8-23.4h4l-11.6,26.9h-4.4L601.6,521.4z"/>
			<path class="st2" d="M637,535.3c0,1.9,0.4,3.6,1.1,5.3c0.7,1.6,1.8,3,3.3,4s3.4,1.5,5.6,1.5c1.8,0,3.4-0.3,4.6-0.9
				c1.2-0.6,2.2-1.3,2.9-2.1c0.7-0.8,1.2-1.5,1.6-2.1l2.3,2.3c-0.8,1.2-1.7,2.3-2.8,3.2s-2.3,1.6-3.7,2c-1.4,0.5-3.1,0.7-5.1,0.7
				c-2.9,0-5.3-0.6-7.3-1.9c-2-1.3-3.6-3-4.6-5.2c-1.1-2.2-1.6-4.7-1.6-7.4c0-2.6,0.5-5,1.6-7.1c1-2.1,2.6-3.8,4.5-5
				c2-1.2,4.4-1.8,7.2-1.8c2.5,0,4.7,0.6,6.6,1.7c1.9,1.1,3.3,2.7,4.4,4.6c1,2,1.6,4.3,1.6,6.9c0,0.2,0,0.4,0,0.8
				c0,0.3,0,0.5-0.1,0.7H637V535.3z M655.3,532.2c0-1.2-0.3-2.4-0.9-3.7c-0.6-1.3-1.5-2.4-2.7-3.4c-1.3-0.9-3-1.4-5.2-1.4
				c-2.3,0-4.1,0.5-5.4,1.4c-1.3,0.9-2.3,2-2.9,3.3c-0.6,1.3-1,2.6-1.1,3.8L655.3,532.2L655.3,532.2z"/>
			<path class="st2" d="M669.8,548.3h-3.7v-26.9h3.7v4.8h-0.2c0.1-0.6,0.5-1.3,1.2-2.2s1.7-1.7,2.9-2.4c1.2-0.7,2.7-1.1,4.3-1.1
				c1.3,0,2.4,0.2,3.3,0.5c0.9,0.3,1.5,0.6,1.9,1l-1.6,3.2c-0.3-0.3-0.8-0.6-1.6-0.9s-1.7-0.4-2.8-0.4c-1.5,0-2.8,0.5-3.9,1.5
				c-1.1,1-2,2.2-2.6,3.6s-0.9,2.7-0.9,3.8L669.8,548.3L669.8,548.3z"/>
			<path class="st2" d="M696.1,520.7c1.2,0,2.4,0.1,3.5,0.4c1.1,0.3,2.1,0.6,2.9,1c0.8,0.4,1.5,0.8,1.9,1.1l-1.8,2.6
				c-0.5-0.4-1.3-0.9-2.4-1.4c-1.1-0.5-2.4-0.7-3.8-0.7c-1.7,0-3.2,0.4-4.5,1.1c-1.2,0.7-1.8,1.8-1.8,3.1c0,1.3,0.6,2.4,1.9,3.2
				c1.2,0.8,2.9,1.4,4.9,1.9c1.5,0.4,3,0.9,4.2,1.5c1.3,0.6,2.3,1.4,3.1,2.4s1.1,2.4,1.1,4c0,1.4-0.3,2.7-0.9,3.7
				c-0.6,1-1.4,1.9-2.4,2.5c-1,0.7-2.2,1.1-3.5,1.5c-1.3,0.3-2.6,0.5-4.1,0.5s-2.8-0.2-4.1-0.5c-1.2-0.3-2.3-0.7-3.2-1.2
				s-1.6-0.9-2-1.3l1.9-2.9c0.6,0.6,1.5,1.2,2.8,1.8s2.8,0.9,4.6,0.9c2,0,3.7-0.5,5-1.4s2-2.2,2-3.7c0-1.1-0.3-2-0.9-2.7
				c-0.6-0.7-1.5-1.2-2.5-1.6c-1-0.4-2.1-0.7-3.3-1c-1.1-0.3-2.2-0.6-3.2-1s-1.9-0.9-2.7-1.5s-1.4-1.3-1.9-2.2
				c-0.4-0.9-0.7-1.9-0.7-3c0-1.4,0.4-2.7,1.3-3.7c0.9-1.1,2.1-1.9,3.6-2.5C692.7,520.9,694.4,520.7,696.1,520.7z"/>
			<path class="st2" d="M715.1,510.5c-0.8,0-1.5-0.3-2-0.8c-0.6-0.6-0.8-1.2-0.8-2s0.3-1.5,0.9-2s1.2-0.8,2-0.8c0.5,0,1,0.1,1.5,0.4
				c0.4,0.3,0.8,0.6,1.1,1s0.4,0.9,0.4,1.5c0,0.8-0.3,1.5-0.9,2C716.6,510.2,715.9,510.5,715.1,510.5z M713.2,548.3v-26.9h3.7v26.9
				H713.2z"/>
			<path class="st2" d="M724.3,521.4h5.6v-11h3.7v11h7.3v3.4h-7.3v15.9c0,1.8,0.3,3.1,1,3.8c0.7,0.8,1.5,1.1,2.5,1.1
				c0.9,0,1.6-0.2,2.1-0.5c0.5-0.3,0.8-0.5,0.9-0.7l1.7,2.8c-0.1,0.1-0.4,0.3-0.9,0.6c-0.5,0.3-1.1,0.5-1.8,0.8
				c-0.7,0.2-1.6,0.3-2.7,0.3c-1.8,0-3.3-0.6-4.6-1.8c-1.3-1.2-1.9-3-1.9-5.6v-16.9h-5.6V521.4z"/>
			<path class="st2" d="M769.2,548.3v-5.6c-0.2,0.6-0.7,1.4-1.5,2.4c-0.9,1-2.1,1.9-3.6,2.8c-1.5,0.8-3.3,1.2-5.4,1.2
				c-2.4,0-4.7-0.6-6.7-1.7s-3.7-2.8-4.9-4.9s-1.8-4.7-1.8-7.6c0-3,0.6-5.5,1.8-7.6s2.9-3.8,4.9-4.9s4.3-1.7,6.7-1.7
				c2.1,0,3.9,0.4,5.4,1.2c1.5,0.8,2.7,1.7,3.6,2.7c0.9,1,1.4,1.8,1.5,2.5v-5.6h3.7v26.9h-3.7V548.3z M749,534.9
				c0,2.3,0.5,4.2,1.5,5.9c1,1.6,2.3,2.9,3.8,3.8c1.6,0.9,3.2,1.3,4.9,1.3c1.9,0,3.6-0.4,5.1-1.3c1.5-0.9,2.7-2.2,3.5-3.8
				c0.9-1.6,1.3-3.6,1.3-5.8c0-2.2-0.4-4.2-1.3-5.8c-0.9-1.6-2-2.9-3.5-3.8c-1.5-0.9-3.2-1.4-5.1-1.4c-1.7,0-3.4,0.4-4.9,1.3
				c-1.6,0.9-2.8,2.1-3.8,3.8C749.5,530.7,749,532.7,749,534.9z M753.6,515.4c-0.8,0-1.5-0.3-2-0.9c-0.6-0.6-0.9-1.2-0.9-2
				c0-0.8,0.3-1.5,0.9-2c0.6-0.6,1.2-0.9,2-0.9s1.5,0.3,2,0.9c0.6,0.6,0.9,1.3,0.9,2c0,0.8-0.3,1.5-0.9,2
				C755.1,515.2,754.4,515.4,753.6,515.4z M766.2,515.4c-0.8,0-1.5-0.3-2-0.9c-0.6-0.6-0.9-1.2-0.9-2c0-0.8,0.3-1.5,0.9-2
				c0.6-0.6,1.2-0.9,2-0.9s1.5,0.3,2,0.9c0.6,0.6,0.9,1.3,0.9,2c0,0.8-0.3,1.5-0.9,2C767.7,515.2,767,515.4,766.2,515.4z"/>
			<path class="st2" d="M778.8,521.4h5.6v-11h3.7v11h7.3v3.4h-7.3v15.9c0,1.8,0.3,3.1,1,3.8c0.7,0.8,1.5,1.1,2.5,1.1
				c0.9,0,1.6-0.2,2.1-0.5c0.5-0.3,0.8-0.5,0.9-0.7l1.7,2.8c-0.1,0.1-0.4,0.3-0.9,0.6c-0.5,0.3-1.1,0.5-1.8,0.8
				c-0.7,0.2-1.6,0.3-2.7,0.3c-1.8,0-3.3-0.6-4.6-1.8c-1.3-1.2-1.9-3-1.9-5.6v-16.9h-5.6V521.4z"/>
			<path class="st2" d="M818,505.1h14c2.2,0,4.3,0.5,6.2,1.4s3.4,2.3,4.6,4.1c1.1,1.8,1.7,4,1.7,6.7c0,2.6-0.6,4.8-1.7,6.6
				c-1.1,1.8-2.4,3.1-4,4c-1.5,0.9-3,1.3-4.3,1.4l10.8,19h-4.2l-10.3-18.8h-9.1v18.8H818V505.1z M821.7,526.6h9
				c2.9,0,5.3-0.7,7.2-2.2c1.8-1.5,2.8-3.8,2.8-6.9c0-3.2-0.9-5.5-2.8-6.9c-1.8-1.4-4.2-2.1-7.2-2.1h-9V526.6z"/>
			<path class="st2" d="M854.5,535.3c0,1.9,0.4,3.6,1.1,5.3c0.7,1.6,1.8,3,3.3,4s3.4,1.5,5.6,1.5c1.8,0,3.4-0.3,4.6-0.9
				c1.2-0.6,2.2-1.3,2.9-2.1c0.7-0.8,1.2-1.5,1.6-2.1l2.3,2.3c-0.8,1.2-1.7,2.3-2.8,3.2s-2.3,1.6-3.7,2c-1.4,0.5-3.1,0.7-5.1,0.7
				c-2.9,0-5.3-0.6-7.3-1.9c-2-1.3-3.6-3-4.6-5.2c-1.1-2.2-1.6-4.7-1.6-7.4c0-2.6,0.5-5,1.6-7.1s2.6-3.8,4.5-5
				c2-1.2,4.4-1.8,7.2-1.8c2.5,0,4.7,0.6,6.6,1.7c1.9,1.1,3.3,2.7,4.4,4.6c1,2,1.6,4.3,1.6,6.9c0,0.2,0,0.4,0,0.8c0,0.3,0,0.5,0,0.7
				h-22.2L854.5,535.3L854.5,535.3z M872.9,532.2c0-1.2-0.3-2.4-0.9-3.7c-0.6-1.3-1.5-2.4-2.7-3.4c-1.3-0.9-3-1.4-5.2-1.4
				c-2.3,0-4.1,0.5-5.4,1.4s-2.3,2-2.9,3.3c-0.6,1.3-1,2.6-1.1,3.8L872.9,532.2L872.9,532.2z"/>
			<path class="st2" d="M905.4,548.3v-5.6c-0.2,0.6-0.7,1.4-1.5,2.4c-0.9,1-2.1,1.9-3.6,2.8c-1.5,0.8-3.3,1.2-5.4,1.2
				c-2.4,0-4.7-0.6-6.7-1.7s-3.7-2.8-4.9-4.9s-1.8-4.7-1.8-7.6c0-3,0.6-5.5,1.8-7.6s2.9-3.8,4.9-4.9s4.3-1.7,6.7-1.7
				c2.1,0,3.9,0.4,5.4,1.2c1.5,0.8,2.7,1.7,3.6,2.7c0.9,1,1.4,1.8,1.5,2.5v-5.6h3.7v26.9h-3.7V548.3z M895.7,562.7
				c-2.2,0-4.2-0.2-5.8-0.7c-1.7-0.5-3.1-1.1-4.2-1.9c-1.1-0.8-2-1.7-2.6-2.6l2.8-2.4c0.4,0.5,0.9,1.2,1.6,1.8
				c0.7,0.7,1.7,1.3,3,1.8s3,0.7,5.1,0.7s3.9-0.5,5.4-1.4c1.5-1,2.6-2.2,3.3-3.8s1.1-3.4,1.1-5.3v-1h3.6v1.2c0,2.9-0.6,5.4-1.8,7.4
				s-2.8,3.5-4.8,4.6C900.4,562.2,898.2,562.7,895.7,562.7z M885.2,534.9c0,2.3,0.5,4.2,1.5,5.9c1,1.7,2.3,2.9,3.8,3.8
				c1.6,0.9,3.2,1.3,4.9,1.3c1.9,0,3.6-0.4,5.1-1.3c1.5-0.9,2.7-2.2,3.5-3.8c0.9-1.6,1.3-3.6,1.3-5.8c0-2.2-0.4-4.2-1.3-5.8
				c-0.9-1.6-2-2.9-3.5-3.8c-1.5-0.9-3.2-1.4-5.1-1.4c-1.7,0-3.4,0.4-4.9,1.3c-1.6,0.9-2.8,2.1-3.8,3.8
				C885.7,530.8,885.2,532.7,885.2,534.9z"/>
			<path class="st2" d="M919.2,535.3c0,1.9,0.4,3.6,1.1,5.3c0.7,1.6,1.8,3,3.3,4s3.4,1.5,5.6,1.5c1.8,0,3.4-0.3,4.6-0.9
				c1.2-0.6,2.2-1.3,2.9-2.1c0.7-0.8,1.2-1.5,1.6-2.1l2.3,2.3c-0.8,1.2-1.7,2.3-2.8,3.2s-2.3,1.6-3.7,2c-1.4,0.5-3.1,0.7-5.1,0.7
				c-2.9,0-5.3-0.6-7.3-1.9c-2-1.3-3.6-3-4.6-5.2c-1.1-2.2-1.6-4.7-1.6-7.4c0-2.6,0.5-5,1.6-7.1s2.6-3.8,4.5-5
				c2-1.2,4.4-1.8,7.2-1.8c2.5,0,4.7,0.6,6.6,1.7c1.9,1.1,3.3,2.7,4.4,4.6c1,2,1.6,4.3,1.6,6.9c0,0.2,0,0.4,0,0.8c0,0.3,0,0.5,0,0.7
				h-22.2L919.2,535.3L919.2,535.3z M937.6,532.2c0-1.2-0.3-2.4-0.9-3.7c-0.6-1.3-1.5-2.4-2.7-3.4c-1.3-0.9-3-1.4-5.2-1.4
				c-2.3,0-4.1,0.5-5.4,1.4s-2.3,2-2.9,3.3c-0.6,1.3-1,2.6-1.1,3.8L937.6,532.2L937.6,532.2z"/>
			<path class="st2" d="M961.6,520.7c1.7,0,3.4,0.4,5,1.1s2.9,1.9,4,3.5c1,1.6,1.6,3.6,1.6,6.1v17h-3.8v-16.1c0-3-0.7-5.1-2.1-6.5
				c-1.4-1.3-3.2-2-5.4-2c-1.4,0-2.8,0.4-4.2,1.2c-1.3,0.8-2.4,2-3.3,3.4c-0.9,1.4-1.3,3.1-1.3,4.8v15h-3.7v-26.9h3.7v5.2
				c0.2-0.8,0.7-1.6,1.6-2.5c0.9-0.9,2-1.7,3.4-2.4C958.4,520.9,960,520.7,961.6,520.7z"/>
			<path class="st2" d="M989.5,520.7c1.2,0,2.4,0.1,3.5,0.4c1.1,0.3,2.1,0.6,2.9,1c0.8,0.4,1.5,0.8,1.9,1.1l-1.8,2.6
				c-0.5-0.4-1.3-0.9-2.4-1.4c-1.1-0.5-2.4-0.7-3.8-0.7c-1.7,0-3.2,0.4-4.5,1.1c-1.2,0.7-1.8,1.8-1.8,3.1c0,1.3,0.6,2.4,1.9,3.2
				c1.2,0.8,2.9,1.4,4.9,1.9c1.5,0.4,3,0.9,4.2,1.5c1.3,0.6,2.3,1.4,3.1,2.4s1.1,2.4,1.1,4c0,1.4-0.3,2.7-0.9,3.7
				c-0.6,1-1.4,1.9-2.4,2.5c-1,0.7-2.2,1.1-3.5,1.5c-1.3,0.3-2.6,0.5-4.1,0.5s-2.8-0.2-4.1-0.5c-1.2-0.3-2.3-0.7-3.2-1.2
				s-1.6-0.9-2-1.3l1.9-2.9c0.6,0.6,1.5,1.2,2.8,1.8s2.8,0.9,4.6,0.9c2,0,3.7-0.5,5-1.4s2-2.2,2-3.7c0-1.1-0.3-2-0.9-2.7
				c-0.6-0.7-1.5-1.2-2.5-1.6c-1-0.4-2.1-0.7-3.3-1c-1.1-0.3-2.2-0.6-3.2-1s-1.9-0.9-2.7-1.5s-1.4-1.3-1.9-2.2
				c-0.4-0.9-0.7-1.9-0.7-3c0-1.4,0.4-2.7,1.3-3.7c0.9-1.1,2.1-1.9,3.6-2.5C986.2,520.9,987.8,520.7,989.5,520.7z"/>
			<path class="st2" d="M1005.8,548.3v-45.1h3.8v23.7c0.1-0.7,0.6-1.6,1.5-2.6s2.2-1.9,3.8-2.6c1.6-0.8,3.4-1.1,5.5-1.1
				c2.4,0,4.6,0.6,6.6,1.7c2,1.1,3.5,2.8,4.7,4.9c1.2,2.1,1.7,4.7,1.7,7.6c0,3-0.6,5.5-1.7,7.6c-1.2,2.1-2.7,3.8-4.7,4.9
				c-2,1.1-4.2,1.7-6.6,1.7c-2.1,0-3.9-0.4-5.5-1.2c-1.6-0.8-2.9-1.7-3.8-2.7c-1-1-1.5-1.9-1.6-2.6v5.6h-3.7L1005.8,548.3
				L1005.8,548.3z M1029.7,534.9c0-2.3-0.5-4.2-1.4-5.9c-0.9-1.7-2.1-2.9-3.6-3.8c-1.5-0.9-3.1-1.3-4.8-1.3c-1.9,0-3.6,0.5-5.2,1.4
				c-1.6,0.9-2.8,2.2-3.8,3.8s-1.4,3.6-1.4,5.8c0,2.2,0.5,4.2,1.4,5.8s2.2,2.9,3.8,3.8c1.6,0.9,3.3,1.3,5.2,1.3
				c1.7,0,3.3-0.4,4.8-1.3s2.7-2.1,3.6-3.8C1029.2,539,1029.7,537.2,1029.7,534.9z"/>
			<path class="st2" d="M1042.6,535.4c0,3.1,0.7,5.6,2.1,7.5c1.4,1.8,3.5,2.8,6.3,2.8s4.9-0.9,6.3-2.8c1.4-1.8,2.1-4.3,2.1-7.5v-14
				h3.7v14.7c0,2.5-0.5,4.7-1.4,6.7s-2.3,3.5-4.1,4.6c-1.8,1.1-4,1.7-6.6,1.7s-4.8-0.6-6.6-1.7c-1.8-1.1-3.2-2.6-4.1-4.6
				s-1.4-4.2-1.4-6.7v-14.7h3.7V535.4z"/>
			<path class="st2" d="M1075.6,548.3h-3.7v-26.9h3.7v4.8h-0.2c0.1-0.6,0.5-1.3,1.2-2.2s1.7-1.7,2.9-2.4c1.2-0.7,2.7-1.1,4.3-1.1
				c1.3,0,2.4,0.2,3.3,0.5c0.9,0.3,1.5,0.6,1.9,1l-1.6,3.2c-0.3-0.3-0.8-0.6-1.6-0.9c-0.8-0.3-1.7-0.4-2.8-0.4
				c-1.5,0-2.8,0.5-3.9,1.5s-2,2.2-2.6,3.6s-0.9,2.7-0.9,3.8L1075.6,548.3L1075.6,548.3z"/>
			<path class="st2" d="M1114.6,548.3v-5.6c-0.2,0.6-0.7,1.4-1.5,2.4c-0.9,1-2.1,1.9-3.6,2.8c-1.5,0.8-3.3,1.2-5.4,1.2
				c-2.4,0-4.7-0.6-6.7-1.7s-3.7-2.8-4.9-4.9c-1.2-2.1-1.8-4.7-1.8-7.6c0-3,0.6-5.5,1.8-7.6c1.2-2.1,2.9-3.8,4.9-4.9
				s4.3-1.7,6.7-1.7c2.1,0,3.9,0.4,5.4,1.2c1.5,0.8,2.7,1.7,3.6,2.7s1.4,1.8,1.5,2.5v-5.6h3.7v26.9h-3.7V548.3z M1104.9,562.7
				c-2.2,0-4.2-0.2-5.8-0.7c-1.7-0.5-3.1-1.1-4.2-1.9c-1.1-0.8-2-1.7-2.6-2.6l2.8-2.4c0.4,0.5,0.9,1.2,1.6,1.8
				c0.7,0.7,1.7,1.3,3,1.8s3,0.7,5.1,0.7s3.9-0.5,5.4-1.4c1.5-1,2.6-2.2,3.3-3.8c0.7-1.6,1.1-3.4,1.1-5.3v-1h3.6v1.2
				c0,2.9-0.6,5.4-1.8,7.4c-1.2,2-2.8,3.5-4.8,4.6S1107.4,562.7,1104.9,562.7z M1094.4,534.9c0,2.3,0.5,4.2,1.5,5.9
				c1,1.7,2.3,2.9,3.8,3.8c1.6,0.9,3.2,1.3,4.9,1.3c1.9,0,3.6-0.4,5.1-1.3c1.5-0.9,2.7-2.2,3.5-3.8c0.9-1.6,1.3-3.6,1.3-5.8
				c0-2.2-0.4-4.2-1.3-5.8s-2-2.9-3.5-3.8c-1.5-0.9-3.2-1.4-5.1-1.4c-1.7,0-3.4,0.4-4.9,1.3c-1.6,0.9-2.8,2.1-3.8,3.8
				C1094.9,530.8,1094.4,532.7,1094.4,534.9z"/>
		</g>
		<path class="st2" d="M517.9,435.4h3.7v39.8h17.6v3.4h-21.3V435.4z"/>
		<path class="st2" d="M548.5,465.5c0,1.9,0.4,3.6,1.1,5.3c0.7,1.6,1.8,3,3.3,4s3.4,1.5,5.6,1.5c1.8,0,3.4-0.3,4.6-0.9
			c1.2-0.6,2.2-1.3,2.9-2.1c0.7-0.8,1.2-1.5,1.6-2.1l2.3,2.3c-0.8,1.2-1.7,2.3-2.8,3.2c-1.1,0.9-2.3,1.6-3.7,2
			c-1.4,0.5-3.1,0.7-5.1,0.7c-2.9,0-5.3-0.6-7.3-1.9s-3.6-3-4.6-5.2c-1.1-2.2-1.6-4.7-1.6-7.4c0-2.6,0.5-5,1.6-7.1
			c1-2.1,2.6-3.8,4.5-5c2-1.2,4.4-1.8,7.2-1.8c2.5,0,4.7,0.6,6.6,1.7c1.9,1.1,3.3,2.7,4.4,4.6c1,2,1.6,4.3,1.6,6.9
			c0,0.2,0,0.4,0,0.8c0,0.3,0,0.5,0,0.7h-22.2L548.5,465.5L548.5,465.5z M566.9,462.4c0-1.2-0.3-2.4-0.9-3.7
			c-0.6-1.3-1.5-2.4-2.7-3.4c-1.3-0.9-3-1.4-5.2-1.4c-2.3,0-4.1,0.5-5.4,1.4s-2.3,2-2.9,3.3c-0.6,1.3-1,2.6-1.1,3.8L566.9,462.4
			L566.9,462.4z"/>
		<path class="st2" d="M591.1,450.9c1.7,0,3.3,0.4,4.9,1.1c1.6,0.7,2.9,1.9,4,3.5c1,1.6,1.6,3.6,1.6,6.1v17h-3.8v-16.1
			c0-3-0.7-5.1-2.1-6.5c-1.4-1.3-3.2-2-5.3-2c-1.5,0-2.9,0.4-4.2,1.2c-1.3,0.8-2.5,2-3.3,3.4c-0.9,1.4-1.3,3.1-1.3,4.8v15h-3.8
			v-45.1h3.8v23.4c0.2-0.8,0.7-1.6,1.6-2.5c0.9-0.9,2-1.7,3.4-2.4C587.9,451.2,589.4,450.9,591.1,450.9z"/>
		<path class="st2" d="M614.1,478.5h-3.7v-26.9h3.7v4.8H614c0.1-0.6,0.5-1.3,1.2-2.2c0.7-0.9,1.7-1.7,2.9-2.4
			c1.2-0.7,2.7-1.1,4.3-1.1c1.3,0,2.4,0.2,3.3,0.5c0.9,0.3,1.5,0.6,1.9,1l-1.6,3.2c-0.3-0.3-0.8-0.6-1.6-0.9s-1.7-0.4-2.8-0.4
			c-1.5,0-2.8,0.5-3.9,1.5c-1.1,1-2,2.2-2.6,3.6s-0.9,2.7-0.9,3.8v15.5H614.1z"/>
		<path class="st2" d="M647.2,451.6h4.8l-14.4,12.8l15.2,14.1H648l-13.5-12.4v12.4h-3.7v-45.1h3.7v29.4L647.2,451.6z"/>
		<path class="st2" d="M661.4,478.5h-3.7v-26.9h3.7v4.8h-0.2c0.1-0.6,0.5-1.3,1.2-2.2c0.7-0.9,1.7-1.7,2.9-2.4
			c1.2-0.7,2.7-1.1,4.3-1.1c1.3,0,2.4,0.2,3.3,0.5c0.9,0.3,1.5,0.6,1.9,1l-1.6,3.2c-0.3-0.3-0.8-0.6-1.6-0.9s-1.7-0.4-2.8-0.4
			c-1.5,0-2.8,0.5-3.9,1.5c-1.1,1-2,2.2-2.6,3.6s-0.9,2.7-0.9,3.8L661.4,478.5L661.4,478.5z"/>
		<path class="st2" d="M700.3,478.5v-5.6c-0.2,0.6-0.7,1.4-1.5,2.4s-2.1,1.9-3.6,2.8c-1.5,0.8-3.3,1.2-5.4,1.2
			c-2.4,0-4.7-0.6-6.7-1.7s-3.7-2.8-4.9-4.9s-1.9-4.7-1.9-7.6s0.6-5.5,1.9-7.6c1.2-2.1,2.9-3.8,4.9-4.9s4.3-1.7,6.7-1.7
			c2.1,0,3.9,0.4,5.4,1.2c1.5,0.8,2.7,1.7,3.6,2.7c0.9,1,1.4,1.8,1.5,2.5v-5.6h3.7v26.9L700.3,478.5L700.3,478.5z M680.1,465.1
			c0,2.3,0.5,4.2,1.5,5.9c1,1.6,2.3,2.9,3.8,3.8c1.6,0.9,3.2,1.3,4.9,1.3c1.9,0,3.6-0.4,5.1-1.3s2.7-2.2,3.5-3.8
			c0.9-1.6,1.3-3.6,1.3-5.8s-0.4-4.2-1.3-5.8c-0.9-1.6-2-2.9-3.5-3.8s-3.2-1.4-5.1-1.4c-1.7,0-3.4,0.4-4.9,1.3
			c-1.6,0.9-2.8,2.1-3.8,3.8C680.6,460.9,680.1,462.9,680.1,465.1z"/>
		<path class="st2" d="M725.6,450.9c1.7,0,3.4,0.4,5,1.1s2.9,1.9,4,3.5s1.6,3.6,1.6,6.1v17h-3.8v-16.1c0-3-0.7-5.1-2.1-6.5
			c-1.4-1.3-3.2-2-5.4-2c-1.4,0-2.8,0.4-4.2,1.2c-1.3,0.8-2.4,2-3.3,3.4c-0.9,1.4-1.3,3.1-1.3,4.8v15h-3.7v-26.9h3.7v5.2
			c0.2-0.8,0.7-1.6,1.6-2.5c0.9-0.9,2-1.7,3.4-2.4S724,450.9,725.6,450.9z"/>
		<path class="st2" d="M760,451.6h4.8l-14.4,12.8l15.2,14.1h-4.9l-13.4-12.4v12.4h-3.7v-45.1h3.7v29.4L760,451.6z"/>
		<path class="st2" d="M770.5,465.5c0,1.9,0.4,3.6,1.1,5.3c0.7,1.6,1.8,3,3.3,4s3.4,1.5,5.6,1.5c1.8,0,3.4-0.3,4.6-0.9
			c1.2-0.6,2.2-1.3,2.9-2.1c0.7-0.8,1.2-1.5,1.6-2.1l2.3,2.3c-0.8,1.2-1.7,2.3-2.8,3.2c-1.1,0.9-2.3,1.6-3.7,2
			c-1.4,0.5-3.1,0.7-5.1,0.7c-2.9,0-5.3-0.6-7.3-1.9s-3.6-3-4.6-5.2c-1.1-2.2-1.6-4.7-1.6-7.4c0-2.6,0.5-5,1.6-7.1s2.6-3.8,4.5-5
			c2-1.2,4.4-1.8,7.2-1.8c2.5,0,4.7,0.6,6.6,1.7c1.9,1.1,3.3,2.7,4.4,4.6c1,2,1.6,4.3,1.6,6.9c0,0.2,0,0.4,0,0.8c0,0.3,0,0.5,0,0.7
			h-22.2L770.5,465.5L770.5,465.5z M788.9,462.4c0-1.2-0.3-2.4-0.9-3.7c-0.6-1.3-1.5-2.4-2.7-3.4c-1.3-0.9-3-1.4-5.2-1.4
			c-2.3,0-4.1,0.5-5.4,1.4s-2.3,2-2.9,3.3c-0.6,1.3-1,2.6-1.1,3.8L788.9,462.4L788.9,462.4z"/>
		<path class="st2" d="M812.9,450.9c1.7,0,3.4,0.4,5,1.1s2.9,1.9,4,3.5s1.6,3.6,1.6,6.1v17h-3.8v-16.1c0-3-0.7-5.1-2.1-6.5
			c-1.4-1.3-3.2-2-5.4-2c-1.4,0-2.8,0.4-4.2,1.2c-1.3,0.8-2.4,2-3.3,3.4c-0.9,1.4-1.3,3.1-1.3,4.8v15h-3.7v-26.9h3.7v5.2
			c0.2-0.8,0.7-1.6,1.6-2.5c0.9-0.9,2-1.7,3.4-2.4S811.2,450.9,812.9,450.9z"/>
		<path class="st2" d="M845.3,450.9c1.7,0,3.3,0.4,4.9,1.1c1.6,0.7,2.9,1.9,4,3.5c1,1.6,1.6,3.6,1.6,6.1v17H852v-16.1
			c0-3-0.7-5.1-2.1-6.5c-1.4-1.3-3.2-2-5.3-2c-1.5,0-2.9,0.4-4.2,1.2c-1.3,0.8-2.5,2-3.3,3.4c-0.9,1.4-1.3,3.1-1.3,4.8v15H832v-45.1
			h3.8v23.4c0.2-0.8,0.7-1.6,1.6-2.5c0.9-0.9,2-1.7,3.4-2.4C842.1,451.2,843.6,450.9,845.3,450.9z"/>
		<path class="st2" d="M886.3,478.5v-5.6c-0.2,0.6-0.7,1.4-1.5,2.4c-0.9,1-2.1,1.9-3.6,2.8c-1.5,0.8-3.3,1.2-5.4,1.2
			c-2.4,0-4.7-0.6-6.7-1.7s-3.7-2.8-4.9-4.9s-1.8-4.7-1.8-7.6s0.6-5.5,1.8-7.6s2.9-3.8,4.9-4.9s4.3-1.7,6.7-1.7
			c2.1,0,3.9,0.4,5.4,1.2c1.5,0.8,2.7,1.7,3.6,2.7c0.9,1,1.4,1.8,1.5,2.5v-5.6h3.7v26.9L886.3,478.5L886.3,478.5z M866.1,465.1
			c0,2.3,0.5,4.2,1.5,5.9c1,1.6,2.3,2.9,3.8,3.8c1.6,0.9,3.2,1.3,4.9,1.3c1.9,0,3.6-0.4,5.1-1.3s2.7-2.2,3.5-3.8
			c0.9-1.6,1.3-3.6,1.3-5.8s-0.4-4.2-1.3-5.8c-0.9-1.6-2-2.9-3.5-3.8s-3.2-1.4-5.1-1.4c-1.7,0-3.4,0.4-4.9,1.3
			c-1.6,0.9-2.8,2.1-3.8,3.8C866.6,460.9,866.1,462.9,866.1,465.1z"/>
		<path class="st2" d="M901.7,465.8c0,3.1,0.7,5.6,2.1,7.5c1.4,1.8,3.5,2.8,6.3,2.8s4.9-0.9,6.3-2.8c1.4-1.8,2.1-4.3,2.1-7.5v-14
			h3.7v14.7c0,2.5-0.5,4.7-1.4,6.7s-2.3,3.5-4.1,4.6s-4,1.7-6.6,1.7s-4.8-0.6-6.6-1.7s-3.2-2.6-4.1-4.6c-0.9-2-1.4-4.2-1.4-6.7
			v-14.7h3.7V465.8z"/>
		<path class="st2" d="M939.6,450.9c1.2,0,2.4,0.1,3.5,0.4s2.1,0.6,2.9,1c0.8,0.4,1.5,0.8,1.9,1.1l-1.8,2.6
			c-0.5-0.4-1.3-0.9-2.4-1.4c-1.1-0.5-2.4-0.7-3.8-0.7c-1.7,0-3.2,0.4-4.5,1.1c-1.2,0.7-1.8,1.8-1.8,3.1c0,1.3,0.6,2.4,1.9,3.2
			c1.2,0.8,2.9,1.4,4.9,1.9c1.5,0.4,3,0.9,4.2,1.5c1.3,0.6,2.3,1.4,3.1,2.4s1.1,2.4,1.1,4c0,1.4-0.3,2.7-0.9,3.7
			c-0.6,1-1.4,1.9-2.4,2.5c-1,0.7-2.2,1.1-3.5,1.5c-1.3,0.3-2.6,0.5-4.1,0.5s-2.8-0.2-4.1-0.5c-1.2-0.3-2.3-0.7-3.2-1.2
			s-1.6-0.9-2-1.3l1.9-2.9c0.6,0.6,1.5,1.2,2.8,1.8c1.3,0.6,2.8,0.9,4.6,0.9c2,0,3.7-0.5,5-1.4s2-2.2,2-3.7c0-1.1-0.3-2-0.9-2.7
			c-0.6-0.7-1.5-1.2-2.5-1.6s-2.1-0.7-3.3-1c-1.1-0.3-2.2-0.6-3.2-1s-1.9-0.9-2.7-1.5s-1.4-1.3-1.9-2.2c-0.4-0.9-0.7-1.9-0.7-3
			c0-1.4,0.4-2.7,1.3-3.7c0.9-1.1,2.1-1.9,3.6-2.5C936.2,451.2,937.8,450.9,939.6,450.9z"/>
		<path class="st2" d="M983.8,479.4c-2.4,0-4.6-0.6-6.6-1.7s-3.5-2.8-4.7-4.9s-1.7-4.7-1.7-7.6s0.6-5.5,1.7-7.6
			c1.2-2.1,2.7-3.8,4.7-4.9s4.2-1.7,6.6-1.7c2.1,0,3.9,0.4,5.5,1.1c1.6,0.8,2.9,1.6,3.8,2.6c0.9,1,1.4,1.8,1.5,2.6v-23.7h3.8v45.1
			h-3.7V473c-0.2,0.7-0.7,1.5-1.7,2.6c-0.9,1-2.2,1.9-3.8,2.7C987.7,478.9,985.9,479.4,983.8,479.4z M984.3,476
			c1.9,0,3.6-0.4,5.2-1.3c1.6-0.9,2.8-2.2,3.8-3.8c0.9-1.6,1.4-3.6,1.4-5.8s-0.5-4.2-1.4-5.8c-0.9-1.6-2.2-2.9-3.8-3.8
			s-3.3-1.4-5.2-1.4c-1.7,0-3.3,0.4-4.8,1.3s-2.7,2.1-3.6,3.8c-0.9,1.6-1.4,3.6-1.4,5.9s0.5,4.2,1.4,5.9c0.9,1.6,2.1,2.9,3.6,3.8
			C981,475.6,982.6,476,984.3,476z"/>
		<path class="st2" d="M1006.8,465.5c0,1.9,0.4,3.6,1.1,5.3c0.7,1.6,1.8,3,3.3,4s3.4,1.5,5.6,1.5c1.8,0,3.4-0.3,4.6-0.9
			c1.2-0.6,2.2-1.3,2.9-2.1c0.7-0.8,1.2-1.5,1.6-2.1l2.3,2.3c-0.8,1.2-1.7,2.3-2.8,3.2c-1.1,0.9-2.3,1.6-3.7,2
			c-1.4,0.5-3.1,0.7-5.1,0.7c-2.9,0-5.3-0.6-7.3-1.9s-3.6-3-4.6-5.2c-1.1-2.2-1.6-4.7-1.6-7.4c0-2.6,0.5-5,1.6-7.1s2.6-3.8,4.5-5
			c2-1.2,4.4-1.8,7.2-1.8c2.5,0,4.7,0.6,6.6,1.7s3.3,2.7,4.4,4.6c1,2,1.6,4.3,1.6,6.9c0,0.2,0,0.4,0,0.8c0,0.3,0,0.5,0,0.7h-22.2
			L1006.8,465.5L1006.8,465.5z M1025.1,462.4c0-1.2-0.3-2.4-0.9-3.7c-0.6-1.3-1.5-2.4-2.7-3.4c-1.3-0.9-3-1.4-5.2-1.4
			c-2.3,0-4.1,0.5-5.4,1.4s-2.3,2-2.9,3.3c-0.6,1.3-1,2.6-1.1,3.8L1025.1,462.4L1025.1,462.4z"/>
		<path class="st2" d="M1039.6,478.5h-3.7v-26.9h3.7v4.8h-0.2c0.1-0.6,0.5-1.3,1.2-2.2c0.7-0.9,1.7-1.7,2.9-2.4
			c1.2-0.7,2.7-1.1,4.3-1.1c1.3,0,2.4,0.2,3.3,0.5s1.5,0.6,1.9,1l-1.6,3.2c-0.3-0.3-0.8-0.6-1.6-0.9c-0.8-0.3-1.7-0.4-2.8-0.4
			c-1.5,0-2.8,0.5-3.9,1.5s-2,2.2-2.6,3.6s-0.9,2.7-0.9,3.8L1039.6,478.5L1039.6,478.5z"/>
		<g>
			<path class="st2" d="M685.3,387.9l18.2,21.6H699L681.6,389v20.5H678v-43.2h3.7V387l16.3-20.8h4.3L685.3,387.9z"/>
			<path class="st2" d="M718.4,410.2c-2.7,0-5.1-0.6-7.2-1.9c-2.1-1.3-3.7-3-4.9-5.1s-1.8-4.5-1.8-7.2c0-2.6,0.6-5,1.8-7.2
				s2.8-3.9,4.9-5.2c2.1-1.3,4.5-1.9,7.2-1.9s5.1,0.6,7.1,1.9c2.1,1.3,3.7,3,4.9,5.2s1.8,4.6,1.8,7.2s-0.6,5-1.8,7.2
				c-1.2,2.1-2.8,3.8-4.9,5.1C723.5,409.6,721.1,410.2,718.4,410.2z M718.4,406.9c2,0,3.8-0.5,5.3-1.4s2.7-2.2,3.5-3.9
				c0.8-1.6,1.3-3.5,1.3-5.5c0-2.1-0.4-3.9-1.3-5.6c-0.8-1.6-2-3-3.5-3.9c-1.5-1-3.3-1.5-5.3-1.5c-2.1,0-3.8,0.5-5.4,1.5
				c-1.5,1-2.7,2.3-3.6,3.9c-0.9,1.6-1.3,3.5-1.3,5.6c0,2,0.4,3.9,1.3,5.5s2,2.9,3.6,3.9C714.6,406.4,716.4,406.9,718.4,406.9z"/>
			<path class="st2" d="M750.8,410.2c-2.7,0-5.1-0.6-7.2-1.9c-2.1-1.3-3.7-3-4.9-5.1s-1.8-4.5-1.8-7.2c0-2.6,0.6-5,1.8-7.2
				s2.8-3.9,4.9-5.2c2.1-1.3,4.5-1.9,7.2-1.9s5.1,0.6,7.1,1.9c2.1,1.3,3.7,3,4.9,5.2s1.8,4.6,1.8,7.2s-0.6,5-1.8,7.2
				c-1.2,2.1-2.8,3.8-4.9,5.1C755.9,409.6,753.5,410.2,750.8,410.2z M750.8,406.9c2,0,3.8-0.5,5.3-1.4s2.7-2.2,3.5-3.9
				c0.8-1.6,1.3-3.5,1.3-5.5c0-2.1-0.4-3.9-1.3-5.6c-0.8-1.6-2-3-3.5-3.9c-1.5-1-3.3-1.5-5.3-1.5c-2.1,0-3.8,0.5-5.4,1.5
				c-1.5,1-2.7,2.3-3.6,3.9c-0.9,1.6-1.3,3.5-1.3,5.6c0,2,0.4,3.9,1.3,5.5c0.9,1.6,2,2.9,3.6,3.9C747,406.4,748.8,406.9,750.8,406.9
				z"/>
			<path class="st2" d="M775.2,423.1h-3.7v-40.5h3.8v5.6c0.1-0.7,0.7-1.6,1.6-2.6c0.9-1,2.2-1.9,3.8-2.6c1.6-0.8,3.4-1.1,5.5-1.1
				c2.4,0,4.6,0.6,6.6,1.7s3.5,2.8,4.7,4.9s1.7,4.7,1.7,7.6c0,3-0.6,5.5-1.8,7.6s-2.7,3.8-4.7,4.9s-4.2,1.7-6.6,1.7
				c-2.1,0-4-0.4-5.6-1.2c-1.6-0.8-2.9-1.7-3.8-2.8s-1.4-1.8-1.5-2.5V423.1z M795.5,396c0-2.3-0.5-4.2-1.4-5.9
				c-0.9-1.6-2.1-2.9-3.6-3.8s-3.1-1.3-4.8-1.3c-1.9,0-3.6,0.5-5.2,1.4c-1.6,0.9-2.8,2.2-3.7,3.8c-0.9,1.6-1.4,3.6-1.4,5.8
				s0.5,4.2,1.4,5.8c0.9,1.6,2.2,2.9,3.7,3.8c1.6,0.9,3.3,1.3,5.2,1.3c1.7,0,3.3-0.4,4.8-1.3s2.7-2.1,3.6-3.8
				C795,400.2,795.5,398.4,795.5,396z"/>
			<path class="st2" d="M807.2,396.4c0,1.9,0.4,3.6,1.1,5.3c0.7,1.6,1.8,3,3.3,4s3.4,1.5,5.6,1.5c1.8,0,3.4-0.3,4.6-0.9
				c1.2-0.6,2.2-1.3,2.9-2.1c0.7-0.8,1.2-1.5,1.6-2.1l2.3,2.3c-0.8,1.2-1.7,2.3-2.8,3.2c-1.1,0.9-2.3,1.6-3.7,2
				c-1.4,0.5-3.1,0.7-5.1,0.7c-2.9,0-5.3-0.6-7.3-1.9s-3.6-3-4.6-5.2c-1.1-2.2-1.6-4.7-1.6-7.4c0-2.6,0.5-5,1.6-7.1
				c1-2.1,2.6-3.8,4.5-5c2-1.2,4.4-1.8,7.2-1.8c2.5,0,4.7,0.6,6.6,1.7c1.9,1.1,3.3,2.7,4.4,4.6c1,2,1.6,4.3,1.6,6.9
				c0,0.2,0,0.4,0,0.8c0,0.3,0,0.5-0.1,0.7h-22.1V396.4z M825.6,393.4c0-1.2-0.3-2.4-0.9-3.7c-0.6-1.3-1.5-2.4-2.7-3.4
				c-1.3-0.9-3-1.4-5.2-1.4c-2.3,0-4.1,0.5-5.4,1.4c-1.3,0.9-2.3,2-2.9,3.3c-0.6,1.3-1,2.6-1.1,3.8L825.6,393.4L825.6,393.4z"/>
			<path class="st2" d="M840.1,409.4h-3.7v-26.9h3.7v4.8h-0.2c0.1-0.6,0.5-1.3,1.2-2.2c0.7-0.9,1.7-1.7,2.9-2.4
				c1.2-0.7,2.7-1.1,4.3-1.1c1.3,0,2.4,0.2,3.3,0.5c0.9,0.3,1.5,0.6,1.9,1l-1.6,3.2c-0.3-0.3-0.8-0.6-1.6-0.9s-1.7-0.4-2.8-0.4
				c-1.5,0-2.8,0.5-3.9,1.5c-1.1,1-2,2.2-2.6,3.6s-0.9,2.7-0.9,3.8L840.1,409.4L840.1,409.4z"/>
			<path class="st2" d="M879,409.4v-5.6c-0.2,0.6-0.7,1.4-1.5,2.4c-0.9,1-2.1,1.9-3.6,2.8c-1.5,0.8-3.3,1.2-5.4,1.2
				c-2.4,0-4.7-0.6-6.7-1.7s-3.7-2.8-4.9-4.9s-1.8-4.7-1.8-7.6c0-3,0.6-5.5,1.8-7.6s2.9-3.8,4.9-4.9s4.3-1.7,6.7-1.7
				c2.1,0,3.9,0.4,5.4,1.2c1.5,0.8,2.7,1.7,3.6,2.7c0.9,1,1.4,1.8,1.5,2.5v-5.6h3.7v26.9L879,409.4L879,409.4z M858.8,396
				c0,2.3,0.5,4.2,1.5,5.9c1,1.6,2.3,2.9,3.8,3.8c1.6,0.9,3.2,1.3,4.9,1.3c1.9,0,3.6-0.4,5.1-1.3s2.7-2.2,3.5-3.8
				c0.9-1.6,1.3-3.6,1.3-5.8s-0.4-4.2-1.3-5.8c-0.9-1.6-2-2.9-3.5-3.8s-3.2-1.4-5.1-1.4c-1.7,0-3.4,0.4-4.9,1.3
				c-1.6,0.9-2.8,2.1-3.8,3.8C859.3,391.9,858.8,393.8,858.8,396z"/>
			<path class="st2" d="M888.6,382.5h5.6v-11h3.7v11h7.3v3.4h-7.3v15.9c0,1.8,0.3,3.1,1,3.8c0.7,0.8,1.5,1.1,2.5,1.1
				c0.9,0,1.6-0.2,2.1-0.5s0.8-0.5,0.9-0.7l1.7,2.8c-0.1,0.1-0.4,0.3-0.9,0.6s-1.1,0.5-1.8,0.8c-0.7,0.2-1.6,0.3-2.7,0.3
				c-1.8,0-3.3-0.6-4.6-1.8s-1.9-3-1.9-5.6v-16.9h-5.6V382.5z"/>
			<path class="st2" d="M914.3,371.6c-0.8,0-1.5-0.3-2-0.8c-0.6-0.6-0.8-1.2-0.8-2s0.3-1.5,0.9-2c0.6-0.6,1.2-0.8,2-0.8
				c0.5,0,1,0.1,1.5,0.4c0.4,0.3,0.8,0.6,1.1,1s0.4,0.9,0.4,1.5c0,0.8-0.3,1.5-0.9,2C915.8,371.4,915.1,371.6,914.3,371.6z
				 M912.4,409.4v-26.9h3.7v26.9H912.4z"/>
			<path class="st2" d="M937.6,410.2c-2.7,0-5.1-0.6-7.2-1.9c-2.1-1.3-3.7-3-4.9-5.1s-1.8-4.5-1.8-7.2c0-2.6,0.6-5,1.8-7.2
				s2.8-3.9,4.9-5.2c2.1-1.3,4.5-1.9,7.2-1.9s5.1,0.6,7.1,1.9c2.1,1.3,3.7,3,4.9,5.2s1.8,4.6,1.8,7.2s-0.6,5-1.8,7.2
				c-1.2,2.1-2.8,3.8-4.9,5.1C942.6,409.6,940.3,410.2,937.6,410.2z M937.6,406.9c2,0,3.8-0.5,5.3-1.4s2.7-2.2,3.5-3.9
				c0.8-1.6,1.3-3.5,1.3-5.5c0-2.1-0.4-3.9-1.3-5.6c-0.8-1.6-2-3-3.5-3.9c-1.5-1-3.3-1.5-5.3-1.5c-2.1,0-3.8,0.5-5.4,1.5
				c-1.5,1-2.7,2.3-3.6,3.9c-0.9,1.6-1.3,3.5-1.3,5.6c0,2,0.4,3.9,1.3,5.5c0.9,1.6,2,2.9,3.6,3.9
				C933.7,406.4,935.5,406.9,937.6,406.9z"/>
			<path class="st2" d="M971.5,381.9c1.7,0,3.4,0.4,5,1.1s2.9,1.9,4,3.5c1,1.6,1.6,3.6,1.6,6.1v17h-3.8v-16.1c0-3-0.7-5.1-2.1-6.5
				c-1.4-1.3-3.2-2-5.4-2c-1.4,0-2.8,0.4-4.2,1.2c-1.3,0.8-2.4,2-3.3,3.4c-0.9,1.4-1.3,3.1-1.3,4.8v15h-3.7v-26.9h3.7v5.2
				c0.2-0.8,0.7-1.6,1.6-2.5c0.9-0.9,2-1.7,3.4-2.4C968.4,382.1,969.9,381.9,971.5,381.9z"/>
			<path class="st2" d="M999.5,381.9c1.2,0,2.4,0.1,3.5,0.4s2.1,0.6,2.9,1c0.8,0.4,1.5,0.8,1.9,1.1l-1.8,2.6
				c-0.5-0.4-1.3-0.9-2.4-1.4c-1.1-0.5-2.4-0.7-3.8-0.7c-1.7,0-3.2,0.4-4.5,1.1c-1.2,0.7-1.8,1.8-1.8,3.1c0,1.3,0.6,2.4,1.9,3.2
				c1.2,0.8,2.9,1.4,4.9,1.9c1.5,0.4,3,0.9,4.2,1.5c1.3,0.6,2.3,1.4,3.1,2.4s1.1,2.4,1.1,4c0,1.4-0.3,2.7-0.9,3.7
				c-0.6,1-1.4,1.9-2.4,2.5c-1,0.7-2.2,1.1-3.5,1.5c-1.3,0.3-2.6,0.5-4.1,0.5s-2.8-0.2-4.1-0.5c-1.2-0.3-2.3-0.7-3.2-1.2
				s-1.6-0.9-2-1.3l1.9-2.9c0.6,0.6,1.5,1.2,2.8,1.8c1.3,0.6,2.8,0.9,4.6,0.9c2,0,3.7-0.5,5-1.4s2-2.2,2-3.7c0-1.1-0.3-2-0.9-2.7
				c-0.6-0.7-1.5-1.2-2.5-1.6s-2.1-0.7-3.3-1c-1.1-0.3-2.2-0.6-3.2-1s-1.9-0.9-2.7-1.5s-1.4-1.3-1.9-2.2c-0.4-0.9-0.7-1.9-0.7-3
				c0-1.4,0.4-2.7,1.3-3.7c0.9-1.1,2.1-1.9,3.6-2.5C996.1,382.1,997.7,381.9,999.5,381.9z"/>
			<path class="st2" d="M1015.7,396.2V393h16.9v3.3H1015.7z"/>
			<path class="st2" d="M1060.5,396.6c0,3.1,0.7,5.6,2.1,7.5c1.4,1.8,3.5,2.8,6.3,2.8s4.9-0.9,6.3-2.8c1.4-1.8,2.1-4.3,2.1-7.5v-14
				h3.7v14.7c0,2.5-0.5,4.7-1.4,6.7s-2.3,3.5-4.1,4.6c-1.8,1.1-4,1.7-6.6,1.7s-4.8-0.6-6.6-1.7c-1.8-1.1-3.2-2.6-4.1-4.6
				s-1.4-4.2-1.4-6.7v-14.7h3.7V396.6z"/>
			<path class="st2" d="M1102.9,381.9c1.7,0,3.4,0.4,5,1.1s2.9,1.9,4,3.5s1.6,3.6,1.6,6.1v17h-3.8v-16.1c0-3-0.7-5.1-2.1-6.5
				c-1.4-1.3-3.2-2-5.4-2c-1.4,0-2.8,0.4-4.2,1.2c-1.3,0.8-2.4,2-3.3,3.4s-1.3,3.1-1.3,4.8v15h-3.7v-26.9h3.7v5.2
				c0.2-0.8,0.7-1.6,1.6-2.5s2-1.7,3.4-2.4S1101.3,381.9,1102.9,381.9z"/>
			<path class="st2" d="M1133.7,410.2c-2.4,0-4.6-0.6-6.6-1.7s-3.5-2.8-4.7-4.9s-1.7-4.7-1.7-7.6c0-3,0.6-5.5,1.7-7.6
				c1.2-2.1,2.7-3.8,4.7-4.9s4.2-1.7,6.6-1.7c2.1,0,3.9,0.4,5.5,1.1c1.6,0.8,2.9,1.6,3.8,2.6s1.4,1.8,1.5,2.6v-23.7h3.8v45.1h-3.7
				v-5.6c-0.2,0.7-0.7,1.5-1.7,2.6c-0.9,1-2.2,1.9-3.8,2.7C1137.6,409.9,1135.8,410.2,1133.7,410.2z M1134.2,406.9
				c1.9,0,3.6-0.4,5.2-1.3s2.8-2.2,3.8-3.8c0.9-1.6,1.4-3.6,1.4-5.8s-0.5-4.2-1.4-5.8c-0.9-1.6-2.2-2.9-3.8-3.8
				c-1.6-0.9-3.3-1.4-5.2-1.4c-1.7,0-3.3,0.4-4.8,1.3s-2.7,2.1-3.6,3.8s-1.4,3.6-1.4,5.9s0.5,4.2,1.4,5.9s2.1,2.9,3.6,3.8
				C1130.9,406.5,1132.5,406.9,1134.2,406.9z"/>
		</g>
	</g>
</g>
</svg>
